<?xml version="1.0" encoding="UTF-8"?>
<svg xmlns="http://www.w3.org/2000/svg" width="920" height="390" viewBox="0 0 920 390" role="img" aria-labelledby="title description">
  <title id="title">AuvroIslam's code year</title>
  <desc id="description">A contribution calendar, coding streaks, and highlighted public repositories. Updated 2026-08-03 UTC.</desc>
  <rect width="920" height="390" fill="#0d1117"/>
  <rect x="0.5" y="0.5" width="919" height="389" fill="none" stroke="#30363d"/>
  <text x="24" y="32" fill="#39d353" font-family="ui-monospace, SFMono-Regular, Menlo, Consolas, monospace" font-size="12" font-weight="700">// AUVROISLAM_CODE_YEAR</text>
  <text x="24" y="61" fill="#f0f6fc" font-family="-apple-system, BlinkMacSystemFont, Segoe UI, sans-serif" font-size="24" font-weight="600">A year in commits</text>
  <text x="24" y="82" fill="#8b949e" font-family="-apple-system, BlinkMacSystemFont, Segoe UI, sans-serif" font-size="12">674 contributions across public work · refreshed 2026-08-03</text>
  <text x="648" y="36" fill="#8b949e" font-family="-apple-system, BlinkMacSystemFont, Segoe UI, sans-serif" font-size="10" font-weight="700">CURRENT STREAK</text>
  <text x="648" y="61" fill="#f0f6fc" font-family="ui-monospace, SFMono-Regular, Menlo, Consolas, monospace" font-size="22" font-weight="700">1d</text>
  <text x="750" y="36" fill="#8b949e" font-family="-apple-system, BlinkMacSystemFont, Segoe UI, sans-serif" font-size="10" font-weight="700">LONGEST</text>
  <text x="750" y="61" fill="#f0f6fc" font-family="ui-monospace, SFMono-Regular, Menlo, Consolas, monospace" font-size="22" font-weight="700">6d</text>
  <text x="838" y="36" fill="#8b949e" font-family="-apple-system, BlinkMacSystemFont, Segoe UI, sans-serif" font-size="10" font-weight="700">REPOS</text>
  <text x="838" y="61" fill="#f0f6fc" font-family="ui-monospace, SFMono-Regular, Menlo, Consolas, monospace" font-size="22" font-weight="700">37</text>
  <line x1="24" y1="102" x2="896" y2="102" stroke="#30363d"/>
  <text x="24" y="126" fill="#8b949e" font-family="-apple-system, BlinkMacSystemFont, Segoe UI, sans-serif" font-size="11" font-weight="600">CONTRIBUTION CALENDAR</text>
  <text x="67" y="161" fill="#8b949e" font-family="-apple-system, BlinkMacSystemFont, Segoe UI, sans-serif" font-size="10">Sun</text>
  <text x="67" y="187" fill="#8b949e" font-family="-apple-system, BlinkMacSystemFont, Segoe UI, sans-serif" font-size="10">Tue</text>
  <text x="67" y="213" fill="#8b949e" font-family="-apple-system, BlinkMacSystemFont, Segoe UI, sans-serif" font-size="10">Thu</text>
  <text x="156" y="174" fill="#8b949e" font-family="-apple-system, BlinkMacSystemFont, Segoe UI, sans-serif" font-size="11">Sep</text>
  <text x="212" y="174" fill="#8b949e" font-family="-apple-system, BlinkMacSystemFont, Segoe UI, sans-serif" font-size="11">Oct</text>
  <text x="268" y="174" fill="#8b949e" font-family="-apple-system, BlinkMacSystemFont, Segoe UI, sans-serif" font-size="11">Nov</text>
  <text x="338" y="174" fill="#8b949e" font-family="-apple-system, BlinkMacSystemFont, Segoe UI, sans-serif" font-size="11">Dec</text>
  <text x="394" y="174" fill="#8b949e" font-family="-apple-system, BlinkMacSystemFont, Segoe UI, sans-serif" font-size="11">Jan</text>
  <text x="464" y="174" fill="#8b949e" font-family="-apple-system, BlinkMacSystemFont, Segoe UI, sans-serif" font-size="11">Feb</text>
  <text x="520" y="174" fill="#8b949e" font-family="-apple-system, BlinkMacSystemFont, Segoe UI, sans-serif" font-size="11">Mar</text>
  <text x="576" y="174" fill="#8b949e" font-family="-apple-system, BlinkMacSystemFont, Segoe UI, sans-serif" font-size="11">Apr</text>
  <text x="632" y="174" fill="#8b949e" font-family="-apple-system, BlinkMacSystemFont, Segoe UI, sans-serif" font-size="11">May</text>
  <text x="702" y="174" fill="#8b949e" font-family="-apple-system, BlinkMacSystemFont, Segoe UI, sans-serif" font-size="11">Jun</text>
  <text x="758" y="174" fill="#8b949e" font-family="-apple-system, BlinkMacSystemFont, Segoe UI, sans-serif" font-size="11">Jul</text>
  <text x="814" y="174" fill="#8b949e" font-family="-apple-system, BlinkMacSystemFont, Segoe UI, sans-serif" font-size="11">Aug</text>
  <rect x="100" y="184" width="10" height="10" rx="2" fill="#161b22"/>
  <rect x="100" y="197" width="10" height="10" rx="2" fill="#161b22"/>
  <rect x="100" y="210" width="10" height="10" rx="2" fill="#161b22"/>
  <rect x="100" y="223" width="10" height="10" rx="2" fill="#161b22"/>
  <rect x="100" y="236" width="10" height="10" rx="2" fill="#161b22"/>
  <rect x="100" y="249" width="10" height="10" rx="2" fill="#161b22"/>
  <rect x="100" y="262" width="10" height="10" rx="2" fill="#161b22"/>
  <rect x="114" y="184" width="10" height="10" rx="2" fill="#161b22"/>
  <rect x="114" y="197" width="10" height="10" rx="2" fill="#161b22"/>
  <rect x="114" y="210" width="10" height="10" rx="2" fill="#161b22"/>
  <rect x="114" y="223" width="10" height="10" rx="2" fill="#161b22"/>
  <rect x="114" y="236" width="10" height="10" rx="2" fill="#161b22"/>
  <rect x="114" y="249" width="10" height="10" rx="2" fill="#161b22"/>
  <rect x="114" y="262" width="10" height="10" rx="2" fill="#161b22"/>
  <rect x="128" y="184" width="10" height="10" rx="2" fill="#161b22"/>
  <rect x="128" y="197" width="10" height="10" rx="2" fill="#161b22"/>
  <rect x="128" y="210" width="10" height="10" rx="2" fill="#161b22"/>
  <rect x="128" y="223" width="10" height="10" rx="2" fill="#161b22"/>
  <rect x="128" y="236" width="10" height="10" rx="2" fill="#161b22"/>
  <rect x="128" y="249" width="10" height="10" rx="2" fill="#161b22"/>
  <rect x="128" y="262" width="10" height="10" rx="2" fill="#161b22"/>
  <rect x="142" y="184" width="10" height="10" rx="2" fill="#161b22"/>
  <rect x="142" y="197" width="10" height="10" rx="2" fill="#161b22"/>
  <rect x="142" y="210" width="10" height="10" rx="2" fill="#161b22"/>
  <rect x="142" y="223" width="10" height="10" rx="2" fill="#161b22"/>
  <rect x="142" y="236" width="10" height="10" rx="2" fill="#0e4429"/>
  <rect x="142" y="249" width="10" height="10" rx="2" fill="#161b22"/>
  <rect x="142" y="262" width="10" height="10" rx="2" fill="#161b22"/>
  <rect x="156" y="184" width="10" height="10" rx="2" fill="#0e4429"/>
  <rect x="156" y="197" width="10" height="10" rx="2" fill="#161b22"/>
  <rect x="156" y="210" width="10" height="10" rx="2" fill="#161b22"/>
  <rect x="156" y="223" width="10" height="10" rx="2" fill="#161b22"/>
  <rect x="156" y="236" width="10" height="10" rx="2" fill="#0e4429"/>
  <rect x="156" y="249" width="10" height="10" rx="2" fill="#161b22"/>
  <rect x="156" y="262" width="10" height="10" rx="2" fill="#161b22"/>
  <rect x="170" y="184" width="10" height="10" rx="2" fill="#161b22"/>
  <rect x="170" y="197" width="10" height="10" rx="2" fill="#161b22"/>
  <rect x="170" y="210" width="10" height="10" rx="2" fill="#161b22"/>
  <rect x="170" y="223" width="10" height="10" rx="2" fill="#161b22"/>
  <rect x="170" y="236" width="10" height="10" rx="2" fill="#161b22"/>
  <rect x="170" y="249" width="10" height="10" rx="2" fill="#0e4429"/>
  <rect x="170" y="262" width="10" height="10" rx="2" fill="#0e4429"/>
  <rect x="184" y="184" width="10" height="10" rx="2" fill="#161b22"/>
  <rect x="184" y="197" width="10" height="10" rx="2" fill="#161b22"/>
  <rect x="184" y="210" width="10" height="10" rx="2" fill="#161b22"/>
  <rect x="184" y="223" width="10" height="10" rx="2" fill="#161b22"/>
  <rect x="184" y="236" width="10" height="10" rx="2" fill="#161b22"/>
  <rect x="184" y="249" width="10" height="10" rx="2" fill="#161b22"/>
  <rect x="184" y="262" width="10" height="10" rx="2" fill="#161b22"/>
  <rect x="198" y="184" width="10" height="10" rx="2" fill="#006d32"/>
  <rect x="198" y="197" width="10" height="10" rx="2" fill="#161b22"/>
  <rect x="198" y="210" width="10" height="10" rx="2" fill="#161b22"/>
  <rect x="198" y="223" width="10" height="10" rx="2" fill="#161b22"/>
  <rect x="198" y="236" width="10" height="10" rx="2" fill="#161b22"/>
  <rect x="198" y="249" width="10" height="10" rx="2" fill="#161b22"/>
  <rect x="198" y="262" width="10" height="10" rx="2" fill="#161b22"/>
  <rect x="212" y="184" width="10" height="10" rx="2" fill="#161b22"/>
  <rect x="212" y="197" width="10" height="10" rx="2" fill="#161b22"/>
  <rect x="212" y="210" width="10" height="10" rx="2" fill="#161b22"/>
  <rect x="212" y="223" width="10" height="10" rx="2" fill="#161b22"/>
  <rect x="212" y="236" width="10" height="10" rx="2" fill="#0e4429"/>
  <rect x="212" y="249" width="10" height="10" rx="2" fill="#161b22"/>
  <rect x="212" y="262" width="10" height="10" rx="2" fill="#0e4429"/>
  <rect x="226" y="184" width="10" height="10" rx="2" fill="#161b22"/>
  <rect x="226" y="197" width="10" height="10" rx="2" fill="#161b22"/>
  <rect x="226" y="210" width="10" height="10" rx="2" fill="#161b22"/>
  <rect x="226" y="223" width="10" height="10" rx="2" fill="#0e4429"/>
  <rect x="226" y="236" width="10" height="10" rx="2" fill="#161b22"/>
  <rect x="226" y="249" width="10" height="10" rx="2" fill="#0e4429"/>
  <rect x="226" y="262" width="10" height="10" rx="2" fill="#161b22"/>
  <rect x="240" y="184" width="10" height="10" rx="2" fill="#161b22"/>
  <rect x="240" y="197" width="10" height="10" rx="2" fill="#161b22"/>
  <rect x="240" y="210" width="10" height="10" rx="2" fill="#161b22"/>
  <rect x="240" y="223" width="10" height="10" rx="2" fill="#161b22"/>
  <rect x="240" y="236" width="10" height="10" rx="2" fill="#161b22"/>
  <rect x="240" y="249" width="10" height="10" rx="2" fill="#161b22"/>
  <rect x="240" y="262" width="10" height="10" rx="2" fill="#161b22"/>
  <rect x="254" y="184" width="10" height="10" rx="2" fill="#161b22"/>
  <rect x="254" y="197" width="10" height="10" rx="2" fill="#0e4429"/>
  <rect x="254" y="210" width="10" height="10" rx="2" fill="#0e4429"/>
  <rect x="254" y="223" width="10" height="10" rx="2" fill="#0e4429"/>
  <rect x="254" y="236" width="10" height="10" rx="2" fill="#161b22"/>
  <rect x="254" y="249" width="10" height="10" rx="2" fill="#161b22"/>
  <rect x="254" y="262" width="10" height="10" rx="2" fill="#161b22"/>
  <rect x="268" y="184" width="10" height="10" rx="2" fill="#161b22"/>
  <rect x="268" y="197" width="10" height="10" rx="2" fill="#161b22"/>
  <rect x="268" y="210" width="10" height="10" rx="2" fill="#161b22"/>
  <rect x="268" y="223" width="10" height="10" rx="2" fill="#161b22"/>
  <rect x="268" y="236" width="10" height="10" rx="2" fill="#161b22"/>
  <rect x="268" y="249" width="10" height="10" rx="2" fill="#161b22"/>
  <rect x="268" y="262" width="10" height="10" rx="2" fill="#161b22"/>
  <rect x="282" y="184" width="10" height="10" rx="2" fill="#161b22"/>
  <rect x="282" y="197" width="10" height="10" rx="2" fill="#161b22"/>
  <rect x="282" y="210" width="10" height="10" rx="2" fill="#161b22"/>
  <rect x="282" y="223" width="10" height="10" rx="2" fill="#161b22"/>
  <rect x="282" y="236" width="10" height="10" rx="2" fill="#161b22"/>
  <rect x="282" y="249" width="10" height="10" rx="2" fill="#161b22"/>
  <rect x="282" y="262" width="10" height="10" rx="2" fill="#161b22"/>
  <rect x="296" y="184" width="10" height="10" rx="2" fill="#161b22"/>
  <rect x="296" y="197" width="10" height="10" rx="2" fill="#161b22"/>
  <rect x="296" y="210" width="10" height="10" rx="2" fill="#161b22"/>
  <rect x="296" y="223" width="10" height="10" rx="2" fill="#161b22"/>
  <rect x="296" y="236" width="10" height="10" rx="2" fill="#161b22"/>
  <rect x="296" y="249" width="10" height="10" rx="2" fill="#161b22"/>
  <rect x="296" y="262" width="10" height="10" rx="2" fill="#161b22"/>
  <rect x="310" y="184" width="10" height="10" rx="2" fill="#161b22"/>
  <rect x="310" y="197" width="10" height="10" rx="2" fill="#161b22"/>
  <rect x="310" y="210" width="10" height="10" rx="2" fill="#161b22"/>
  <rect x="310" y="223" width="10" height="10" rx="2" fill="#161b22"/>
  <rect x="310" y="236" width="10" height="10" rx="2" fill="#161b22"/>
  <rect x="310" y="249" width="10" height="10" rx="2" fill="#161b22"/>
  <rect x="310" y="262" width="10" height="10" rx="2" fill="#161b22"/>
  <rect x="324" y="184" width="10" height="10" rx="2" fill="#161b22"/>
  <rect x="324" y="197" width="10" height="10" rx="2" fill="#161b22"/>
  <rect x="324" y="210" width="10" height="10" rx="2" fill="#161b22"/>
  <rect x="324" y="223" width="10" height="10" rx="2" fill="#161b22"/>
  <rect x="324" y="236" width="10" height="10" rx="2" fill="#161b22"/>
  <rect x="324" y="249" width="10" height="10" rx="2" fill="#161b22"/>
  <rect x="324" y="262" width="10" height="10" rx="2" fill="#161b22"/>
  <rect x="338" y="184" width="10" height="10" rx="2" fill="#161b22"/>
  <rect x="338" y="197" width="10" height="10" rx="2" fill="#161b22"/>
  <rect x="338" y="210" width="10" height="10" rx="2" fill="#161b22"/>
  <rect x="338" y="223" width="10" height="10" rx="2" fill="#161b22"/>
  <rect x="338" y="236" width="10" height="10" rx="2" fill="#161b22"/>
  <rect x="338" y="249" width="10" height="10" rx="2" fill="#161b22"/>
  <rect x="338" y="262" width="10" height="10" rx="2" fill="#161b22"/>
  <rect x="352" y="184" width="10" height="10" rx="2" fill="#161b22"/>
  <rect x="352" y="197" width="10" height="10" rx="2" fill="#161b22"/>
  <rect x="352" y="210" width="10" height="10" rx="2" fill="#161b22"/>
  <rect x="352" y="223" width="10" height="10" rx="2" fill="#161b22"/>
  <rect x="352" y="236" width="10" height="10" rx="2" fill="#0e4429"/>
  <rect x="352" y="249" width="10" height="10" rx="2" fill="#161b22"/>
  <rect x="352" y="262" width="10" height="10" rx="2" fill="#161b22"/>
  <rect x="366" y="184" width="10" height="10" rx="2" fill="#161b22"/>
  <rect x="366" y="197" width="10" height="10" rx="2" fill="#161b22"/>
  <rect x="366" y="210" width="10" height="10" rx="2" fill="#161b22"/>
  <rect x="366" y="223" width="10" height="10" rx="2" fill="#161b22"/>
  <rect x="366" y="236" width="10" height="10" rx="2" fill="#161b22"/>
  <rect x="366" y="249" width="10" height="10" rx="2" fill="#161b22"/>
  <rect x="366" y="262" width="10" height="10" rx="2" fill="#161b22"/>
  <rect x="380" y="184" width="10" height="10" rx="2" fill="#0e4429"/>
  <rect x="380" y="197" width="10" height="10" rx="2" fill="#161b22"/>
  <rect x="380" y="210" width="10" height="10" rx="2" fill="#161b22"/>
  <rect x="380" y="223" width="10" height="10" rx="2" fill="#161b22"/>
  <rect x="380" y="236" width="10" height="10" rx="2" fill="#161b22"/>
  <rect x="380" y="249" width="10" height="10" rx="2" fill="#161b22"/>
  <rect x="380" y="262" width="10" height="10" rx="2" fill="#0e4429"/>
  <rect x="394" y="184" width="10" height="10" rx="2" fill="#161b22"/>
  <rect x="394" y="197" width="10" height="10" rx="2" fill="#161b22"/>
  <rect x="394" y="210" width="10" height="10" rx="2" fill="#161b22"/>
  <rect x="394" y="223" width="10" height="10" rx="2" fill="#161b22"/>
  <rect x="394" y="236" width="10" height="10" rx="2" fill="#161b22"/>
  <rect x="394" y="249" width="10" height="10" rx="2" fill="#161b22"/>
  <rect x="394" y="262" width="10" height="10" rx="2" fill="#161b22"/>
  <rect x="408" y="184" width="10" height="10" rx="2" fill="#161b22"/>
  <rect x="408" y="197" width="10" height="10" rx="2" fill="#161b22"/>
  <rect x="408" y="210" width="10" height="10" rx="2" fill="#161b22"/>
  <rect x="408" y="223" width="10" height="10" rx="2" fill="#161b22"/>
  <rect x="408" y="236" width="10" height="10" rx="2" fill="#161b22"/>
  <rect x="408" y="249" width="10" height="10" rx="2" fill="#161b22"/>
  <rect x="408" y="262" width="10" height="10" rx="2" fill="#161b22"/>
  <rect x="422" y="184" width="10" height="10" rx="2" fill="#161b22"/>
  <rect x="422" y="197" width="10" height="10" rx="2" fill="#161b22"/>
  <rect x="422" y="210" width="10" height="10" rx="2" fill="#161b22"/>
  <rect x="422" y="223" width="10" height="10" rx="2" fill="#161b22"/>
  <rect x="422" y="236" width="10" height="10" rx="2" fill="#161b22"/>
  <rect x="422" y="249" width="10" height="10" rx="2" fill="#161b22"/>
  <rect x="422" y="262" width="10" height="10" rx="2" fill="#161b22"/>
  <rect x="436" y="184" width="10" height="10" rx="2" fill="#161b22"/>
  <rect x="436" y="197" width="10" height="10" rx="2" fill="#161b22"/>
  <rect x="436" y="210" width="10" height="10" rx="2" fill="#161b22"/>
  <rect x="436" y="223" width="10" height="10" rx="2" fill="#161b22"/>
  <rect x="436" y="236" width="10" height="10" rx="2" fill="#161b22"/>
  <rect x="436" y="249" width="10" height="10" rx="2" fill="#161b22"/>
  <rect x="436" y="262" width="10" height="10" rx="2" fill="#161b22"/>
  <rect x="450" y="184" width="10" height="10" rx="2" fill="#0e4429"/>
  <rect x="450" y="197" width="10" height="10" rx="2" fill="#161b22"/>
  <rect x="450" y="210" width="10" height="10" rx="2" fill="#0e4429"/>
  <rect x="450" y="223" width="10" height="10" rx="2" fill="#161b22"/>
  <rect x="450" y="236" width="10" height="10" rx="2" fill="#0e4429"/>
  <rect x="450" y="249" width="10" height="10" rx="2" fill="#0e4429"/>
  <rect x="450" y="262" width="10" height="10" rx="2" fill="#161b22"/>
  <rect x="464" y="184" width="10" height="10" rx="2" fill="#161b22"/>
  <rect x="464" y="197" width="10" height="10" rx="2" fill="#161b22"/>
  <rect x="464" y="210" width="10" height="10" rx="2" fill="#0e4429"/>
  <rect x="464" y="223" width="10" height="10" rx="2" fill="#0e4429"/>
  <rect x="464" y="236" width="10" height="10" rx="2" fill="#0e4429"/>
  <rect x="464" y="249" width="10" height="10" rx="2" fill="#161b22"/>
  <rect x="464" y="262" width="10" height="10" rx="2" fill="#161b22"/>
  <rect x="478" y="184" width="10" height="10" rx="2" fill="#161b22"/>
  <rect x="478" y="197" width="10" height="10" rx="2" fill="#161b22"/>
  <rect x="478" y="210" width="10" height="10" rx="2" fill="#161b22"/>
  <rect x="478" y="223" width="10" height="10" rx="2" fill="#161b22"/>
  <rect x="478" y="236" width="10" height="10" rx="2" fill="#161b22"/>
  <rect x="478" y="249" width="10" height="10" rx="2" fill="#161b22"/>
  <rect x="478" y="262" width="10" height="10" rx="2" fill="#161b22"/>
  <rect x="492" y="184" width="10" height="10" rx="2" fill="#161b22"/>
  <rect x="492" y="197" width="10" height="10" rx="2" fill="#0e4429"/>
  <rect x="492" y="210" width="10" height="10" rx="2" fill="#0e4429"/>
  <rect x="492" y="223" width="10" height="10" rx="2" fill="#161b22"/>
  <rect x="492" y="236" width="10" height="10" rx="2" fill="#161b22"/>
  <rect x="492" y="249" width="10" height="10" rx="2" fill="#161b22"/>
  <rect x="492" y="262" width="10" height="10" rx="2" fill="#0e4429"/>
  <rect x="506" y="184" width="10" height="10" rx="2" fill="#0e4429"/>
  <rect x="506" y="197" width="10" height="10" rx="2" fill="#161b22"/>
  <rect x="506" y="210" width="10" height="10" rx="2" fill="#161b22"/>
  <rect x="506" y="223" width="10" height="10" rx="2" fill="#0e4429"/>
  <rect x="506" y="236" width="10" height="10" rx="2" fill="#161b22"/>
  <rect x="506" y="249" width="10" height="10" rx="2" fill="#0e4429"/>
  <rect x="506" y="262" width="10" height="10" rx="2" fill="#161b22"/>
  <rect x="520" y="184" width="10" height="10" rx="2" fill="#161b22"/>
  <rect x="520" y="197" width="10" height="10" rx="2" fill="#161b22"/>
  <rect x="520" y="210" width="10" height="10" rx="2" fill="#0e4429"/>
  <rect x="520" y="223" width="10" height="10" rx="2" fill="#161b22"/>
  <rect x="520" y="236" width="10" height="10" rx="2" fill="#0e4429"/>
  <rect x="520" y="249" width="10" height="10" rx="2" fill="#161b22"/>
  <rect x="520" y="262" width="10" height="10" rx="2" fill="#161b22"/>
  <rect x="534" y="184" width="10" height="10" rx="2" fill="#161b22"/>
  <rect x="534" y="197" width="10" height="10" rx="2" fill="#161b22"/>
  <rect x="534" y="210" width="10" height="10" rx="2" fill="#0e4429"/>
  <rect x="534" y="223" width="10" height="10" rx="2" fill="#0e4429"/>
  <rect x="534" y="236" width="10" height="10" rx="2" fill="#0e4429"/>
  <rect x="534" y="249" width="10" height="10" rx="2" fill="#161b22"/>
  <rect x="534" y="262" width="10" height="10" rx="2" fill="#161b22"/>
  <rect x="548" y="184" width="10" height="10" rx="2" fill="#161b22"/>
  <rect x="548" y="197" width="10" height="10" rx="2" fill="#161b22"/>
  <rect x="548" y="210" width="10" height="10" rx="2" fill="#161b22"/>
  <rect x="548" y="223" width="10" height="10" rx="2" fill="#161b22"/>
  <rect x="548" y="236" width="10" height="10" rx="2" fill="#161b22"/>
  <rect x="548" y="249" width="10" height="10" rx="2" fill="#161b22"/>
  <rect x="548" y="262" width="10" height="10" rx="2" fill="#161b22"/>
  <rect x="562" y="184" width="10" height="10" rx="2" fill="#161b22"/>
  <rect x="562" y="197" width="10" height="10" rx="2" fill="#161b22"/>
  <rect x="562" y="210" width="10" height="10" rx="2" fill="#161b22"/>
  <rect x="562" y="223" width="10" height="10" rx="2" fill="#161b22"/>
  <rect x="562" y="236" width="10" height="10" rx="2" fill="#161b22"/>
  <rect x="562" y="249" width="10" height="10" rx="2" fill="#161b22"/>
  <rect x="562" y="262" width="10" height="10" rx="2" fill="#161b22"/>
  <rect x="576" y="184" width="10" height="10" rx="2" fill="#161b22"/>
  <rect x="576" y="197" width="10" height="10" rx="2" fill="#161b22"/>
  <rect x="576" y="210" width="10" height="10" rx="2" fill="#161b22"/>
  <rect x="576" y="223" width="10" height="10" rx="2" fill="#161b22"/>
  <rect x="576" y="236" width="10" height="10" rx="2" fill="#0e4429"/>
  <rect x="576" y="249" width="10" height="10" rx="2" fill="#0e4429"/>
  <rect x="576" y="262" width="10" height="10" rx="2" fill="#0e4429"/>
  <rect x="590" y="184" width="10" height="10" rx="2" fill="#0e4429"/>
  <rect x="590" y="197" width="10" height="10" rx="2" fill="#0e4429"/>
  <rect x="590" y="210" width="10" height="10" rx="2" fill="#0e4429"/>
  <rect x="590" y="223" width="10" height="10" rx="2" fill="#161b22"/>
  <rect x="590" y="236" width="10" height="10" rx="2" fill="#161b22"/>
  <rect x="590" y="249" width="10" height="10" rx="2" fill="#161b22"/>
  <rect x="590" y="262" width="10" height="10" rx="2" fill="#161b22"/>
  <rect x="604" y="184" width="10" height="10" rx="2" fill="#161b22"/>
  <rect x="604" y="197" width="10" height="10" rx="2" fill="#0e4429"/>
  <rect x="604" y="210" width="10" height="10" rx="2" fill="#0e4429"/>
  <rect x="604" y="223" width="10" height="10" rx="2" fill="#0e4429"/>
  <rect x="604" y="236" width="10" height="10" rx="2" fill="#0e4429"/>
  <rect x="604" y="249" width="10" height="10" rx="2" fill="#161b22"/>
  <rect x="604" y="262" width="10" height="10" rx="2" fill="#006d32"/>
  <rect x="618" y="184" width="10" height="10" rx="2" fill="#161b22"/>
  <rect x="618" y="197" width="10" height="10" rx="2" fill="#161b22"/>
  <rect x="618" y="210" width="10" height="10" rx="2" fill="#26a641"/>
  <rect x="618" y="223" width="10" height="10" rx="2" fill="#161b22"/>
  <rect x="618" y="236" width="10" height="10" rx="2" fill="#0e4429"/>
  <rect x="618" y="249" width="10" height="10" rx="2" fill="#0e4429"/>
  <rect x="618" y="262" width="10" height="10" rx="2" fill="#0e4429"/>
  <rect x="632" y="184" width="10" height="10" rx="2" fill="#0e4429"/>
  <rect x="632" y="197" width="10" height="10" rx="2" fill="#0e4429"/>
  <rect x="632" y="210" width="10" height="10" rx="2" fill="#0e4429"/>
  <rect x="632" y="223" width="10" height="10" rx="2" fill="#161b22"/>
  <rect x="632" y="236" width="10" height="10" rx="2" fill="#0e4429"/>
  <rect x="632" y="249" width="10" height="10" rx="2" fill="#006d32"/>
  <rect x="632" y="262" width="10" height="10" rx="2" fill="#161b22"/>
  <rect x="646" y="184" width="10" height="10" rx="2" fill="#006d32"/>
  <rect x="646" y="197" width="10" height="10" rx="2" fill="#161b22"/>
  <rect x="646" y="210" width="10" height="10" rx="2" fill="#161b22"/>
  <rect x="646" y="223" width="10" height="10" rx="2" fill="#0e4429"/>
  <rect x="646" y="236" width="10" height="10" rx="2" fill="#161b22"/>
  <rect x="646" y="249" width="10" height="10" rx="2" fill="#161b22"/>
  <rect x="646" y="262" width="10" height="10" rx="2" fill="#161b22"/>
  <rect x="660" y="184" width="10" height="10" rx="2" fill="#0e4429"/>
  <rect x="660" y="197" width="10" height="10" rx="2" fill="#0e4429"/>
  <rect x="660" y="210" width="10" height="10" rx="2" fill="#161b22"/>
  <rect x="660" y="223" width="10" height="10" rx="2" fill="#161b22"/>
  <rect x="660" y="236" width="10" height="10" rx="2" fill="#161b22"/>
  <rect x="660" y="249" width="10" height="10" rx="2" fill="#0e4429"/>
  <rect x="660" y="262" width="10" height="10" rx="2" fill="#0e4429"/>
  <rect x="674" y="184" width="10" height="10" rx="2" fill="#0e4429"/>
  <rect x="674" y="197" width="10" height="10" rx="2" fill="#161b22"/>
  <rect x="674" y="210" width="10" height="10" rx="2" fill="#161b22"/>
  <rect x="674" y="223" width="10" height="10" rx="2" fill="#161b22"/>
  <rect x="674" y="236" width="10" height="10" rx="2" fill="#006d32"/>
  <rect x="674" y="249" width="10" height="10" rx="2" fill="#161b22"/>
  <rect x="674" y="262" width="10" height="10" rx="2" fill="#161b22"/>
  <rect x="688" y="184" width="10" height="10" rx="2" fill="#161b22"/>
  <rect x="688" y="197" width="10" height="10" rx="2" fill="#0e4429"/>
  <rect x="688" y="210" width="10" height="10" rx="2" fill="#0e4429"/>
  <rect x="688" y="223" width="10" height="10" rx="2" fill="#0e4429"/>
  <rect x="688" y="236" width="10" height="10" rx="2" fill="#0e4429"/>
  <rect x="688" y="249" width="10" height="10" rx="2" fill="#0e4429"/>
  <rect x="688" y="262" width="10" height="10" rx="2" fill="#0e4429"/>
  <rect x="702" y="184" width="10" height="10" rx="2" fill="#161b22"/>
  <rect x="702" y="197" width="10" height="10" rx="2" fill="#161b22"/>
  <rect x="702" y="210" width="10" height="10" rx="2" fill="#0e4429"/>
  <rect x="702" y="223" width="10" height="10" rx="2" fill="#0e4429"/>
  <rect x="702" y="236" width="10" height="10" rx="2" fill="#161b22"/>
  <rect x="702" y="249" width="10" height="10" rx="2" fill="#0e4429"/>
  <rect x="702" y="262" width="10" height="10" rx="2" fill="#161b22"/>
  <rect x="716" y="184" width="10" height="10" rx="2" fill="#0e4429"/>
  <rect x="716" y="197" width="10" height="10" rx="2" fill="#0e4429"/>
  <rect x="716" y="210" width="10" height="10" rx="2" fill="#161b22"/>
  <rect x="716" y="223" width="10" height="10" rx="2" fill="#161b22"/>
  <rect x="716" y="236" width="10" height="10" rx="2" fill="#161b22"/>
  <rect x="716" y="249" width="10" height="10" rx="2" fill="#0e4429"/>
  <rect x="716" y="262" width="10" height="10" rx="2" fill="#161b22"/>
  <rect x="730" y="184" width="10" height="10" rx="2" fill="#161b22"/>
  <rect x="730" y="197" width="10" height="10" rx="2" fill="#161b22"/>
  <rect x="730" y="210" width="10" height="10" rx="2" fill="#161b22"/>
  <rect x="730" y="223" width="10" height="10" rx="2" fill="#161b22"/>
  <rect x="730" y="236" width="10" height="10" rx="2" fill="#161b22"/>
  <rect x="730" y="249" width="10" height="10" rx="2" fill="#161b22"/>
  <rect x="730" y="262" width="10" height="10" rx="2" fill="#161b22"/>
  <rect x="744" y="184" width="10" height="10" rx="2" fill="#161b22"/>
  <rect x="744" y="197" width="10" height="10" rx="2" fill="#161b22"/>
  <rect x="744" y="210" width="10" height="10" rx="2" fill="#161b22"/>
  <rect x="744" y="223" width="10" height="10" rx="2" fill="#161b22"/>
  <rect x="744" y="236" width="10" height="10" rx="2" fill="#161b22"/>
  <rect x="744" y="249" width="10" height="10" rx="2" fill="#0e4429"/>
  <rect x="744" y="262" width="10" height="10" rx="2" fill="#161b22"/>
  <rect x="758" y="184" width="10" height="10" rx="2" fill="#161b22"/>
  <rect x="758" y="197" width="10" height="10" rx="2" fill="#0e4429"/>
  <rect x="758" y="210" width="10" height="10" rx="2" fill="#161b22"/>
  <rect x="758" y="223" width="10" height="10" rx="2" fill="#0e4429"/>
  <rect x="758" y="236" width="10" height="10" rx="2" fill="#161b22"/>
  <rect x="758" y="249" width="10" height="10" rx="2" fill="#0e4429"/>
  <rect x="758" y="262" width="10" height="10" rx="2" fill="#006d32"/>
  <rect x="772" y="184" width="10" height="10" rx="2" fill="#161b22"/>
  <rect x="772" y="197" width="10" height="10" rx="2" fill="#161b22"/>
  <rect x="772" y="210" width="10" height="10" rx="2" fill="#0e4429"/>
  <rect x="772" y="223" width="10" height="10" rx="2" fill="#006d32"/>
  <rect x="772" y="236" width="10" height="10" rx="2" fill="#0e4429"/>
  <rect x="772" y="249" width="10" height="10" rx="2" fill="#0e4429"/>
  <rect x="772" y="262" width="10" height="10" rx="2" fill="#161b22"/>
  <rect x="786" y="184" width="10" height="10" rx="2" fill="#161b22"/>
  <rect x="786" y="197" width="10" height="10" rx="2" fill="#161b22"/>
  <rect x="786" y="210" width="10" height="10" rx="2" fill="#161b22"/>
  <rect x="786" y="223" width="10" height="10" rx="2" fill="#161b22"/>
  <rect x="786" y="236" width="10" height="10" rx="2" fill="#161b22"/>
  <rect x="786" y="249" width="10" height="10" rx="2" fill="#0e4429"/>
  <rect x="786" y="262" width="10" height="10" rx="2" fill="#006d32"/>
  <rect x="800" y="184" width="10" height="10" rx="2" fill="#161b22"/>
  <rect x="800" y="197" width="10" height="10" rx="2" fill="#161b22"/>
  <rect x="800" y="210" width="10" height="10" rx="2" fill="#0e4429"/>
  <rect x="800" y="223" width="10" height="10" rx="2" fill="#0e4429"/>
  <rect x="800" y="236" width="10" height="10" rx="2" fill="#0e4429"/>
  <rect x="800" y="249" width="10" height="10" rx="2" fill="#161b22"/>
  <rect x="800" y="262" width="10" height="10" rx="2" fill="#161b22"/>
  <rect x="814" y="184" width="10" height="10" rx="2" fill="#161b22"/>
  <rect x="814" y="197" width="10" height="10" rx="2" fill="#161b22"/>
  <rect x="814" y="210" width="10" height="10" rx="2" fill="#26a641"/>
  <rect x="814" y="223" width="10" height="10" rx="2" fill="#39d353"/>
  <rect x="814" y="236" width="10" height="10" rx="2" fill="#006d32"/>
  <rect x="814" y="249" width="10" height="10" rx="2" fill="#26a641"/>
  <rect x="814" y="262" width="10" height="10" rx="2" fill="#006d32"/>
  <rect x="828" y="184" width="10" height="10" rx="2" fill="#161b22"/>
  <rect x="828" y="197" width="10" height="10" rx="2" fill="#0e4429"/>
  <text x="710" y="254" fill="#8b949e" font-family="-apple-system, BlinkMacSystemFont, Segoe UI, sans-serif" font-size="11">Less</text>
  <rect x="744" y="244" width="10" height="10" rx="2" fill="#161b22"/>
  <rect x="758" y="244" width="10" height="10" rx="2" fill="#0e4429"/>
  <rect x="772" y="244" width="10" height="10" rx="2" fill="#006d32"/>
  <rect x="786" y="244" width="10" height="10" rx="2" fill="#26a641"/>
  <rect x="800" y="244" width="10" height="10" rx="2" fill="#39d353"/>
  <text x="820" y="254" fill="#8b949e" font-family="-apple-system, BlinkMacSystemFont, Segoe UI, sans-serif" font-size="11">More</text>
  <text x="24" y="278" fill="#8b949e" font-family="-apple-system, BlinkMacSystemFont, Segoe UI, sans-serif" font-size="11" font-weight="600">PROJECT INDEX</text>
  <rect x="24" y="286" width="284" height="76" rx="6" fill="#161b22" stroke="#30363d"/>
  <circle cx="42" cy="309" r="5" fill="#A97BFF"/>
  <text x="54" y="314" fill="#f0f6fc" font-family="ui-monospace, SFMono-Regular, Menlo, Consolas, monospace" font-size="13" font-weight="600">Nongor</text>
  <text x="42" y="342" fill="#8b949e" font-family="-apple-system, BlinkMacSystemFont, Segoe UI, sans-serif" font-size="11">Kotlin · 192 stars</text>
  <rect x="326" y="286" width="284" height="76" rx="6" fill="#161b22" stroke="#30363d"/>
  <circle cx="344" cy="309" r="5" fill="#3178c6"/>
  <text x="356" y="314" fill="#f0f6fc" font-family="ui-monospace, SFMono-Regular, Menlo, Consolas, monospace" font-size="13" font-weight="600">MioApp</text>
  <text x="344" y="342" fill="#8b949e" font-family="-apple-system, BlinkMacSystemFont, Segoe UI, sans-serif" font-size="11">TypeScript · 1 stars</text>
  <rect x="628" y="286" width="284" height="76" rx="6" fill="#161b22" stroke="#30363d"/>
  <circle cx="646" cy="309" r="5" fill="#DA5B0B"/>
  <text x="658" y="314" fill="#f0f6fc" font-family="ui-monospace, SFMono-Regular, Menlo, Consolas, monospace" font-size="13" font-weight="600">wasteRecognizer</text>
  <text x="646" y="342" fill="#8b949e" font-family="-apple-system, BlinkMacSystemFont, Segoe UI, sans-serif" font-size="11">Jupyter Notebook · 1 stars</text>
</svg>
